<svg width="36" height="22" viewBox="0 0 36 22" fill="none" xmlns="http://www.w3.org/2000/svg">
<path d="M15.6678 9.14886C16.2901 8.21538 16.6012 7.12632 16.6012 5.88168C16.6012 2.61451 13.8008 0.125244 10.6892 0.125244H1.66559C1.19885 0.125244 0.887695 0.436403 0.887695 0.903142V20.6617C0.887695 21.1285 1.19885 21.4396 1.66559 21.4396H11.6227C15.3566 21.4396 18.4682 18.4836 18.4682 14.7497C18.4682 12.416 17.3791 10.3935 15.6678 9.14886ZM4.77718 4.17031H10.6892C11.7783 4.17031 12.5562 5.10379 12.5562 6.03727C12.5562 7.12633 11.6227 7.90422 10.6892 7.90422H4.77718V4.17031ZM11.7783 17.5501H4.77718V11.9493H11.7783C13.3341 11.9493 14.5787 13.1939 14.5787 14.7497C14.5787 16.3055 13.3341 17.5501 11.7783 17.5501Z" fill="white"/>
<path d="M35.7375 13.3495C35.7375 8.68213 32.1592 4.94822 27.6474 4.94822C23.1356 4.94822 19.5572 8.68213 19.5572 13.3495C19.5572 18.0169 23.1356 21.7508 27.6474 21.7508C30.2922 21.7508 32.7815 20.3506 34.3373 18.0169C34.4929 17.7057 34.6485 17.3946 34.804 17.0834C34.9596 16.9278 34.804 16.6167 34.4929 16.6167H30.6034C30.4478 16.6167 30.4478 16.6167 30.2922 16.7723C29.5143 17.5502 28.5809 17.8613 27.6474 17.8613C25.6248 17.8613 24.069 16.4611 23.6023 14.4386H34.9596C35.4264 14.4386 35.7375 14.1274 35.7375 13.6607V13.3495ZM27.6474 8.99329C29.0476 8.99329 30.2922 9.77119 31.0701 11.0158H24.2246C24.8469 9.77119 26.2472 8.99329 27.6474 8.99329Z" fill="white"/>
<path d="M30.9146 4.01476H23.7579C23.4467 4.01476 23.1356 3.70359 23.1356 3.39243V1.68106C23.1356 1.3699 23.4467 1.05874 23.7579 1.05874H30.9146C31.2257 1.05874 31.5369 1.3699 31.5369 1.68106V3.54801C31.5369 3.70359 31.3813 4.01476 30.9146 4.01476Z" fill="white"/>
</svg>
