<svg width="41" height="41" viewBox="0 0 41 41" fill="none" xmlns="http://www.w3.org/2000/svg">
<path d="M20.5119 3.84748C25.9423 3.84748 26.5854 3.8713 28.7211 3.96657C30.7059 4.0539 31.7777 4.38735 32.4922 4.66522C33.437 5.03043 34.1197 5.47502 34.8263 6.18161C35.5409 6.89614 35.9775 7.57098 36.3427 8.51574C36.6206 9.23027 36.954 10.31 37.0414 12.2869C37.1366 14.4305 37.1605 15.0735 37.1605 20.496C37.1605 25.9265 37.1366 26.5695 37.0414 28.7052C36.954 30.69 36.6206 31.7618 36.3427 32.4763C35.9775 33.4211 35.5329 34.1039 34.8263 34.8104C34.1118 35.525 33.437 35.9616 32.4922 36.3268C31.7777 36.6047 30.6979 36.9382 28.7211 37.0255C26.5775 37.1208 25.9344 37.1446 20.5119 37.1446C15.0815 37.1446 14.4384 37.1208 12.3028 37.0255C10.3179 36.9382 9.24615 36.6047 8.53162 36.3268C7.58686 35.9616 6.90408 35.517 6.19749 34.8104C5.48296 34.0959 5.0463 33.4211 4.6811 32.4763C4.40323 31.7618 4.06978 30.6821 3.98245 28.7052C3.88718 26.5616 3.86336 25.9185 3.86336 20.496C3.86336 15.0656 3.88718 14.4225 3.98245 12.2869C4.06978 10.3021 4.40323 9.23027 4.6811 8.51574C5.0463 7.57098 5.4909 6.8882 6.19749 6.18161C6.91202 5.46708 7.58686 5.03043 8.53162 4.66522C9.24615 4.38735 10.3259 4.0539 12.3028 3.96657C14.4384 3.8713 15.0815 3.84748 20.5119 3.84748ZM20.5119 0.1875C14.9942 0.1875 14.3034 0.211318 12.136 0.306588C9.97656 0.401859 8.49193 0.751185 7.20577 1.25136C5.86404 1.77534 4.72874 2.46606 3.60137 3.60137C2.46606 4.72873 1.77534 5.86404 1.25136 7.19783C0.751185 8.49193 0.401859 9.96862 0.306588 12.1281C0.211318 14.3034 0.1875 14.9941 0.1875 20.5119C0.1875 26.0297 0.211318 26.7204 0.306588 28.8878C0.401859 31.0473 0.751185 32.5319 1.25136 33.818C1.77534 35.1598 2.46606 36.2951 3.60137 37.4224C4.72874 38.5498 5.86404 39.2485 7.19783 39.7645C8.49193 40.2647 9.96862 40.614 12.1281 40.7093C14.2955 40.8046 14.9862 40.8284 20.504 40.8284C26.0217 40.8284 26.7124 40.8046 28.8798 40.7093C31.0393 40.614 32.524 40.2647 33.8101 39.7645C35.1439 39.2485 36.2792 38.5498 37.4066 37.4224C38.5339 36.2951 39.2326 35.1598 39.7486 33.826C40.2488 32.5319 40.5981 31.0552 40.6934 28.8957C40.7887 26.7283 40.8125 26.0376 40.8125 20.5198C40.8125 15.0021 40.7887 14.3114 40.6934 12.144C40.5981 9.9845 40.2488 8.49986 39.7486 7.21371C39.2485 5.86404 38.5578 4.72873 37.4225 3.60137C36.2951 2.474 35.1598 1.77534 33.826 1.25929C32.5319 0.759124 31.0552 0.409798 28.8957 0.314528C26.7204 0.211318 26.0297 0.1875 20.5119 0.1875Z" fill="white"/>
</svg>
