<svg width="25" height="24" viewBox="0 0 25 24" fill="none" xmlns="http://www.w3.org/2000/svg">
<path d="M24.5 14.7094V23.6724H19.2534V15.2559C19.2534 13.1791 18.4882 11.7582 16.63 11.7582C15.2091 11.7582 14.3346 12.7419 14.0067 13.6164C13.8974 13.9443 13.7881 14.3815 13.7881 14.928V23.6724H8.54148C8.54148 23.6724 8.65078 9.46276 8.54148 8.0418H13.7881V10.2279C14.4439 9.13485 15.7556 7.60458 18.4882 7.60458C21.8767 7.60458 24.5 9.89998 24.5 14.7094ZM3.07623 0.499756C1.32735 0.499756 0.125 1.70211 0.125 3.23238C0.125 4.76265 1.21805 5.965 2.96693 5.965C4.82511 5.965 5.91816 4.76265 5.91816 3.23238C6.02747 1.59281 4.93441 0.499756 3.07623 0.499756ZM0.452914 23.6724H5.69955V8.0418H0.452914V23.6724Z" fill="white"/>
</svg>
