<svg width="36" height="30" viewBox="0 0 36 30" fill="none" xmlns="http://www.w3.org/2000/svg">
<path fill-rule="evenodd" clip-rule="evenodd" d="M2.7115 13.1573C12.1859 9.0295 18.5037 6.30817 21.6648 4.99336C30.6904 1.23931 32.5658 0.587193 33.7882 0.565659C34.0571 0.560923 34.6582 0.627553 35.0476 0.943515C35.3764 1.21031 35.4668 1.57071 35.5101 1.82365C35.5534 2.0766 35.6073 2.65283 35.5645 3.10307C35.0754 8.24208 32.959 20.7131 31.8824 26.4689C31.4268 28.9044 30.5297 29.721 29.6613 29.8009C27.774 29.9746 26.3408 28.5536 24.5128 27.3554C21.6524 25.4803 20.0364 24.3131 17.2599 22.4834C14.0511 20.3689 16.1313 19.2067 17.9599 17.3074C18.4385 16.8103 26.7541 9.24659 26.9151 8.56044C26.9352 8.47463 26.9539 8.15475 26.7639 7.98585C26.5738 7.81694 26.2934 7.8747 26.091 7.92064C25.8041 7.98575 21.2345 11.0061 12.3823 16.9816C11.0852 17.8722 9.91039 18.3062 8.85778 18.2834C7.69736 18.2584 5.46519 17.6273 3.80579 17.0879C1.77048 16.4263 0.152848 16.0765 0.293707 14.9529C0.367075 14.3677 1.17301 13.7692 2.7115 13.1573Z" fill="white"/>
</svg>
