<svg width="35" height="35" viewBox="0 0 35 35" fill="none" xmlns="http://www.w3.org/2000/svg">
<path d="M29.3811 5.60107C26.1707 2.40185 21.8902 0.624512 17.3719 0.624512C7.97866 0.624512 0.368901 8.20785 0.368901 17.5685C0.368901 20.5308 1.20122 23.493 2.62805 25.9813L0.25 34.7495L9.28659 32.3797C11.7835 33.6831 14.5183 34.394 17.3719 34.394C26.7652 34.394 34.375 26.8107 34.375 17.45C34.2561 13.0659 32.5915 8.80029 29.3811 5.60107ZM25.5762 23.6115C25.2195 24.5594 23.5549 25.5073 22.7226 25.6258C22.0091 25.7443 21.0579 25.7443 20.1067 25.5073C19.5122 25.2703 18.6799 25.0334 17.7287 24.5594C13.4482 22.7821 10.7134 18.5164 10.4756 18.161C10.2378 17.924 8.69208 15.9097 8.69208 13.7769C8.69208 11.644 9.76219 10.6961 10.1189 10.2222C10.4756 9.74821 10.9512 9.74821 11.3079 9.74821C11.5457 9.74821 11.9024 9.74821 12.1402 9.74821C12.378 9.74821 12.7348 9.62972 13.0915 10.4591C13.4482 11.2886 14.2805 13.4214 14.3994 13.5399C14.5183 13.7769 14.5183 14.0138 14.3994 14.2508C14.2805 14.4878 14.1616 14.7248 13.9238 14.9618C13.686 15.1987 13.4482 15.5542 13.3293 15.6727C13.0915 15.9097 12.8537 16.1466 13.0915 16.5021C13.3293 16.9761 14.1616 18.2795 15.4695 19.4644C17.1341 20.8862 18.4421 21.3602 18.9177 21.5972C19.3933 21.8342 19.6311 21.7157 19.8689 21.4787C20.1067 21.2417 20.939 20.2938 21.1768 19.8198C21.4146 19.3459 21.7713 19.4644 22.128 19.5828C22.4848 19.7013 24.625 20.7677 24.9817 21.0047C25.4573 21.2417 25.6951 21.3602 25.814 21.4787C25.9329 21.8341 25.9329 22.6636 25.5762 23.6115Z" fill="white"/>
</svg>
